HIERARCHY
ROOT root
{
	OFFSET 0.000000 0.000000 0.000000
	CHANNELS 6 Xposition Yposition Zposition Zrotation Yrotation Xrotation
	JOINT lhip
	{
		OFFSET 0.058581 -0.082280 -0.017664
		CHANNELS 3 Zrotation Yrotation Xrotation
		JOINT lknee
		{
			OFFSET 0.043451 -0.386469 0.008037
			CHANNELS 3 Zrotation Yrotation Xrotation
			JOINT lankle
			{
				OFFSET -0.014790 -0.426874 -0.037428
				CHANNELS 3 Zrotation Yrotation Xrotation
				JOINT ltoe
				{
					OFFSET 0.041054 -0.060286 0.122042
					CHANNELS 3 Zrotation Yrotation Xrotation
					End Site
					{
						OFFSET 0.000000 0.000000 0.000000
					}
				}
			}
		}
	}
	JOINT rhip
	{
		OFFSET -0.060310 -0.090513 -0.013543
		CHANNELS 3 Zrotation Yrotation Xrotation
		JOINT rknee
		{
			OFFSET -0.043257 -0.383688 -0.004843
			CHANNELS 3 Zrotation Yrotation Xrotation
			JOINT rankle
			{
				OFFSET 0.019056 -0.420046 -0.034562
				CHANNELS 3 Zrotation Yrotation Xrotation
				JOINT rtoe
				{
					OFFSET -0.034840 -0.062106 0.130323
					CHANNELS 3 Zrotation Yrotation Xrotation
					End Site
					{
						OFFSET 0.000000 0.000000 0.000000
					}
				}
			}
		}
	}
	JOINT lowerback
	{
		OFFSET 0.004439 0.124404 -0.038385
		CHANNELS 3 Zrotation Yrotation Xrotation
		JOINT upperback
		{
			OFFSET 0.004488 0.137956 0.026820
			CHANNELS 3 Zrotation Yrotation Xrotation
			JOINT chest
			{
				OFFSET -0.002265 0.056032 0.002855
				CHANNELS 3 Zrotation Yrotation Xrotation
				JOINT lowerneck
				{
					OFFSET -0.013390 0.211636 -0.033468
					CHANNELS 3 Zrotation Yrotation Xrotation
					JOINT upperneck
					{
						OFFSET 0.010113 0.088937 0.050410
						CHANNELS 3 Zrotation Yrotation Xrotation
						End Site
						{
							OFFSET 0.000000 0.000000 0.000000
						}
					}
				}
				JOINT lclavicle
				{
					OFFSET 0.071702 0.114000 -0.018898
					CHANNELS 3 Zrotation Yrotation Xrotation
					JOINT lshoulder
					{
						OFFSET 0.122921 0.045205 -0.019046
						CHANNELS 3 Zrotation Yrotation Xrotation
						JOINT lelbow
						{
							OFFSET 0.255332 -0.015649 -0.022946
							CHANNELS 3 Zrotation Yrotation Xrotation
							JOINT lwrist
							{
								OFFSET 0.265709 0.012698 -0.007375
								CHANNELS 3 Zrotation Yrotation Xrotation
								End Site
								{
									OFFSET 0.000000 0.000000 0.000000
								}
							}
						}
					}
				}
				JOINT rclavicle
				{
					OFFSET -0.082954 0.112472 -0.023707
					CHANNELS 3 Zrotation Yrotation Xrotation
					JOINT rshoulder
					{
						OFFSET -0.113228 0.046853 -0.008472
						CHANNELS 3 Zrotation Yrotation Xrotation
						JOINT relbow
						{
							OFFSET -0.260127 -0.014369 -0.031269
							CHANNELS 3 Zrotation Yrotation Xrotation
							JOINT rwrist
							{
								OFFSET -0.269108 0.006794 -0.006027
								CHANNELS 3 Zrotation Yrotation Xrotation
								End Site
								{
									OFFSET 0.000000 0.000000 0.000000
								}
							}
						}
					}
				}
			}
		}
	}
}
MOTION
Frames: 6
Frame Time: 0.033333
1.450569 0.231493 0.986093 -12.559732 2.768849 92.607534 4.770436 3.575351 -0.959853 -7.081483 3.104505 -1.197465 4.599789 10.912193 -10.355630 0.000000 -0.000000 0.000000 -3.601647 -0.095866 -9.550611 8.207916 -0.227325 11.826011 1.143466 -0.228988 -7.256426 0.000000 -0.000000 0.000000 0.037622 0.489582 2.074922 2.997514 -2.158215 0.033567 0.048479 -1.247082 -4.482628 6.807679 -7.056284 5.647431 7.647367 -7.319546 6.092815 -29.015352 0.293700 2.656110 -62.051043 -6.368845 16.275487 2.501162 -26.720035 2.922073 -12.709693 -13.099175 -3.410328 26.322957 4.836469 1.609155 57.577805 4.468407 19.624320 -4.215673 21.689700 10.674594 14.276038 7.321148 5.453055 
1.448862 0.231641 0.985958 -12.680772 2.804947 92.651424 4.975886 3.780500 -0.399183 -7.191296 2.620639 -2.265263 4.361787 11.085497 -10.014467 0.000000 -0.000000 0.000000 -3.325951 0.343367 -9.833991 8.099773 0.198043 12.224856 1.790103 -1.033480 -7.358138 0.000000 -0.000000 0.000000 0.061394 0.129823 2.017691 2.868019 -1.782083 -0.254128 0.140674 -1.111625 -4.157579 6.929643 -6.815710 4.837084 7.254473 -7.101288 6.768622 -28.674528 0.279350 2.490188 -61.925528 -6.446943 16.444822 2.959099 -26.343100 3.176571 -11.902993 -12.909879 -2.737600 26.236177 4.797482 1.499591 57.592215 4.549877 19.852269 -3.932278 21.808337 11.261779 14.449648 7.133847 5.936470 
1.447383 0.232329 0.986135 -12.565431 2.760886 92.703063 5.021667 3.866227 -0.356587 -7.134129 2.265946 -2.503453 4.234294 11.125900 -9.847982 0.000000 -0.000000 0.000000 -3.095066 0.566327 -10.338958 7.821402 0.177251 13.037451 1.884802 -1.327199 -7.628823 0.000000 -0.000000 0.000000 -0.008419 -0.112911 2.071428 2.856408 -1.711228 -0.285981 0.161396 -1.092658 -4.139989 6.881380 -6.728478 4.367871 7.071907 -6.956665 6.986655 -28.430582 0.144483 2.356058 -61.597360 -6.236873 16.743342 3.694780 -26.203446 3.484931 -10.290289 -12.612701 -1.803684 26.199890 4.872427 1.398569 57.553591 4.538480 19.961018 -3.751299 22.120737 11.646243 13.892483 7.227399 5.980830 
1.446038 0.234194 0.987421 -11.702450 2.576539 92.566060 4.748910 3.663297 -0.916471 -6.736587 1.705701 -1.419412 4.188651 11.037691 -10.205418 0.000000 -0.000000 0.000000 -2.846801 0.400286 -11.219605 7.401574 -0.005103 14.972697 2.029964 -1.715821 -8.286827 0.000000 -0.000000 0.000000 -0.324346 -0.364556 2.621852 2.967327 -2.064409 -0.058700 0.183615 -1.301006 -4.463812 6.769472 -7.270728 3.866046 6.924460 -7.306030 7.161989 -28.374445 -0.107922 2.099544 -61.013717 -5.824639 17.059114 4.896976 -26.005126 2.414687 -6.740334 -12.241220 -1.084678 26.534619 4.993285 1.001757 57.018878 4.374824 19.922155 -3.483411 22.553663 11.435062 12.662110 7.480415 6.467417 
1.444433 0.236237 0.988257 -11.064204 2.479954 92.459576 4.697063 3.446807 -1.503772 -6.564355 1.369954 -0.335848 4.137855 11.035485 -10.526609 0.000000 -0.000000 0.000000 -2.439226 0.514914 -11.967714 6.778264 -0.317665 16.533712 1.936690 -2.108635 -8.816917 0.000000 -0.000000 0.000000 -0.797901 -0.478368 3.199189 3.121802 -2.237389 -0.081033 0.340214 -1.470584 -4.540047 6.712900 -8.055706 3.511792 6.879606 -8.036578 7.272910 -28.223381 -0.197405 1.883847 -60.790150 -5.714177 17.107641 5.709960 -25.770331 1.242672 -5.060967 -12.072852 -1.092479 26.723715 5.044611 0.649236 56.782896 4.242542 19.863544 -3.513429 22.862659 11.144415 12.092986 7.671657 6.604592 
1.441186 0.240176 0.989347 -10.152013 2.390135 92.265131 4.804754 3.118960 -2.463543 -6.452885 0.829433 1.474724 4.097044 11.135604 -11.011363 0.000000 -0.000000 0.000000 -1.663956 1.071316 -13.203118 5.626414 -0.826199 19.095471 1.757400 -2.935009 -9.597004 0.000000 -0.000000 0.000000 -1.822873 -0.639122 4.221950 3.476899 -2.386748 -0.189826 0.733071 -1.616989 -4.514040 6.687443 -9.762910 3.097108 6.849172 -9.686745 7.404299 -27.900478 -0.156959 1.472383 -60.561381 -5.806224 17.041761 6.744718 -25.473020 -0.809590 -3.587573 -11.655567 -1.493132 26.922188 5.175019 0.058313 56.561855 3.952691 19.793408 -3.758050 23.341776 10.568880 11.526360 7.899026 6.631108 
